<svg width="40.000000" height="40.000000" viewBox="0 0 40 40" fill="none" xmlns="http://www.w3.org/2000/svg" xmlns:xlink="http://www.w3.org/1999/xlink">
	<desc>
			Created with Pixso.
	</desc>
	<defs>
		<filter id="filter_375_38368_dd" x="-46.911377" y="-38.251953" width="134.000000" height="138.278076" filterUnits="userSpaceOnUse" color-interpolation-filters="sRGB">
			<feFlood flood-opacity="0" result="BackgroundImageFix"/>
			<feColorMatrix in="SourceAlpha" type="matrix" values="0 0 0 0 0 0 0 0 0 0 0 0 0 0 0 0 0 0 127 0" result="hardAlpha"/>
			<feOffset dx="0" dy="8"/>
			<feGaussianBlur stdDeviation="10.6667"/>
			<feComposite in2="hardAlpha" operator="out" k2="-1" k3="1"/>
			<feColorMatrix type="matrix" values="0 0 0 0 0.031373 0 0 0 0 0.36078 0 0 0 0 0.094118 0 0 0 0.051 0"/>
			<feBlend mode="normal" in2="BackgroundImageFix" result="effect_dropShadow_1"/>
			<feColorMatrix in="SourceAlpha" type="matrix" values="0 0 0 0 0 0 0 0 0 0 0 0 0 0 0 0 0 0 127 0" result="hardAlpha"/>
			<feOffset dx="0" dy="12"/>
			<feGaussianBlur stdDeviation="21.3333"/>
			<feComposite in2="hardAlpha" operator="out" k2="-1" k3="1"/>
			<feColorMatrix type="matrix" values="0 0 0 0 0.031373 0 0 0 0 0.36078 0 0 0 0 0.094118 0 0 0 0.051 0"/>
			<feBlend mode="normal" in2="effect_dropShadow_1" result="effect_dropShadow_2"/>
			<feBlend mode="normal" in="SourceGraphic" in2="effect_dropShadow_2" result="shape"/>
		</filter>
		<clipPath id="clip375_38362">
			<rect id="Frame 4133415482 (1)" width="40.000000" height="40.000000" fill="white" fill-opacity="0"/>
		</clipPath>
	</defs>
	<g clip-path="url(#clip375_38362)">
		<mask id="mask375_38366" mask-type="alpha" maskUnits="userSpaceOnUse" x="0.000000" y="0.000000" width="40.000000" height="40.000000">
			<rect id="Frame 4133415482" rx="20.000000" width="40.000000" height="40.000000" fill="#000000" fill-opacity="1.000000"/>
		</mask>
		<g mask="url(#mask375_38366)">
			<g filter="url(#filter_375_38368_dd)">
				<path id="›" d="M17.08 15.29L17.08 14.9C17.08 13.85 18.37 13.35 19.07 14.11L22.78 18.09C23.19 18.54 23.19 19.22 22.78 19.67L19.07 23.65C18.37 24.42 17.08 23.91 17.08 22.87L17.08 22.45C17.08 22.17 17.18 21.89 17.38 21.68L19.54 19.26C19.74 19.05 19.74 18.72 19.54 18.49L17.37 16.06C17.18 15.84 17.08 15.57 17.08 15.29Z" fill="#262626" fill-opacity="0.550000" fill-rule="nonzero"/>
			</g>
		</g>
	</g>
</svg>
