<svg width="44.000000" height="44.000000" viewBox="0 0 44 44" fill="none" xmlns="http://www.w3.org/2000/svg" xmlns:xlink="http://www.w3.org/1999/xlink">
	<desc>
			Created with Pixso.
	</desc>
	<defs>
		<clipPath id="clip219_100094">
			<rect id="Frame 2131331980" rx="22.000000" width="44.000000" height="44.000000" fill="white" fill-opacity="0"/>
		</clipPath>
	</defs>
	<rect id="Frame 2131331980" rx="22.000000" width="44.000000" height="44.000000" fill="#50D864" fill-opacity="1.000000"/>
	<g clip-path="url(#clip219_100094)">
		<path id="Shape" d="M23.4 11.7L18.32 11.7C18.2 11.7 18.08 11.72 17.97 11.74C17.87 11.76 17.78 11.79 17.68 11.83C17.59 11.87 17.5 11.92 17.42 11.97C17.33 12.03 17.25 12.1 17.17 12.18C17.09 12.26 17.02 12.34 16.96 12.43C16.9 12.51 16.86 12.6 16.82 12.7C16.73 12.9 16.69 13.11 16.69 13.33L16.69 22.24L15.2 22.24C15.11 22.24 15.01 22.25 14.92 22.27C14.84 22.29 14.76 22.32 14.68 22.35C14.53 22.42 14.38 22.51 14.26 22.63C14.2 22.7 14.14 22.77 14.09 22.84C14.05 22.91 14.01 22.98 13.98 23.06C13.9 23.22 13.87 23.4 13.87 23.58C13.87 23.76 13.9 23.93 13.98 24.1C14.04 24.25 14.14 24.4 14.26 24.52C14.38 24.64 14.53 24.74 14.68 24.8C14.76 24.84 14.84 24.86 14.92 24.88C15.01 24.9 15.11 24.91 15.2 24.91L16.69 24.91L16.69 26.46L15.2 26.46C15.11 26.46 15.01 26.47 14.92 26.49C14.84 26.51 14.76 26.53 14.68 26.57C14.53 26.63 14.38 26.73 14.26 26.85C14.2 26.91 14.14 26.98 14.09 27.06C14.05 27.12 14.01 27.2 13.98 27.27C13.9 27.44 13.87 27.61 13.87 27.79C13.87 27.97 13.9 28.15 13.98 28.31C14.04 28.47 14.14 28.61 14.26 28.73C14.38 28.86 14.53 28.95 14.68 29.02C14.76 29.05 14.84 29.08 14.92 29.1C15.01 29.11 15.11 29.12 15.2 29.12L16.69 29.12L16.69 30.66C16.69 30.78 16.71 30.89 16.73 31.01C16.75 31.11 16.78 31.2 16.82 31.29C16.9 31.49 17.02 31.66 17.17 31.81C17.32 31.96 17.49 32.08 17.68 32.16C17.89 32.24 18.1 32.29 18.32 32.29L18.62 32.29C18.74 32.29 18.85 32.27 18.97 32.25C19.06 32.23 19.16 32.2 19.25 32.16C19.45 32.08 19.62 31.96 19.77 31.81C19.92 31.66 20.04 31.49 20.12 31.29C20.2 31.09 20.24 30.88 20.24 30.66L20.24 29.12L24.56 29.12C24.74 29.12 24.91 29.09 25.08 29.02C25.23 28.95 25.38 28.86 25.5 28.73C25.62 28.61 25.71 28.47 25.78 28.31C25.85 28.15 25.89 27.97 25.89 27.79C25.89 27.61 25.85 27.44 25.78 27.27C25.71 27.11 25.62 26.97 25.5 26.85C25.38 26.73 25.23 26.63 25.08 26.57C24.91 26.5 24.74 26.46 24.56 26.46L20.24 26.46L20.24 24.91L23.4 24.91C24.38 24.91 25.29 24.74 26.13 24.41C26.68 24.19 27.17 23.91 27.61 23.58C27.84 23.41 28.06 23.22 28.26 23.02C28.51 22.77 28.74 22.5 28.93 22.22C29.22 21.83 29.45 21.4 29.64 20.94C29.96 20.14 30.12 19.29 30.12 18.39C30.12 17.45 29.97 16.57 29.67 15.76C29.44 15.14 29.13 14.58 28.74 14.09C28.61 13.93 28.48 13.77 28.34 13.63C27.74 13.01 27.03 12.54 26.21 12.21C25.36 11.87 24.42 11.7 23.4 11.7ZM26.34 16.84C26.49 17.25 26.57 17.71 26.57 18.22C26.57 20.43 25.34 21.54 22.88 21.54L20.24 21.54L20.24 15.44C20.24 15.29 20.3 15.16 20.4 15.05C20.51 14.95 20.64 14.89 20.78 14.89L22.88 14.89C23.51 14.89 24.06 14.98 24.55 15.15C25 15.3 25.37 15.53 25.68 15.82C25.96 16.1 26.19 16.44 26.34 16.84Z" fill="#FFFFFF" fill-opacity="1.000000" fill-rule="evenodd"/>
	</g>
</svg>
